<svg xmlns="http://www.w3.org/2000/svg" version="1.1" xmlns:xlink="http://www.w3.org/1999/xlink" xmlns:svgjs="http://svgjs.com/svgjs" width="100%" height="100%"><svg width="100%" height="100%" viewBox="0 0 800 798" version="1.1" xmlns="http://www.w3.org/2000/svg" xmlns:xlink="http://www.w3.org/1999/xlink" xml:space="preserve" xmlns:serif="http://www.serif.com/" style="fill-rule:evenodd;clip-rule:evenodd;stroke-linecap:round;stroke-linejoin:round;stroke-miterlimit:1.5;">
    <g>
        <rect x="42.424" y="36.086" width="717.105" height="720.877" style="fill:rgb(0,42,255);fill-opacity:1;"></rect>
        <path d="M770.26,27.131L770.26,766.107L31.284,766.107L31.284,27.131L770.26,27.131ZM703.999,93.392L97.545,93.392L97.545,699.845L703.999,699.845L703.999,93.392Z" style="stroke:rgb(235,235,235);stroke-width:1px;"></path>
        <path d="M129.349,558.53L216.156,553.092C218.036,567.191 221.863,577.933 227.637,585.318C237.036,597.268 250.463,603.243 267.919,603.243C280.943,603.243 290.98,600.189 298.029,594.079C305.079,587.97 308.603,580.887 308.603,572.831C308.603,565.177 305.247,558.329 298.533,552.287C291.819,546.244 276.244,540.538 251.806,535.167C211.792,526.171 183.259,514.22 166.207,499.316C149.02,484.412 140.426,465.412 140.426,442.317C140.426,427.144 144.824,412.811 153.619,399.316C162.414,385.822 175.639,375.214 193.296,367.493C210.953,359.773 235.156,355.912 265.904,355.912C303.635,355.912 332.403,362.928 352.209,376.96C372.014,390.991 383.796,413.314 387.556,443.928L301.554,448.964C299.271,435.671 294.471,426.003 287.153,419.961C279.835,413.918 269.731,410.897 256.841,410.897C246.233,410.897 238.244,413.146 232.873,417.644C227.502,422.143 224.817,427.614 224.817,434.059C224.817,438.759 227.032,442.988 231.463,446.748C235.76,450.642 245.965,454.267 262.078,457.624C301.957,466.218 330.523,474.912 347.778,483.707C365.032,492.502 377.586,503.411 385.441,516.436C393.296,529.46 397.224,544.029 397.224,560.142C397.224,579.074 391.987,596.53 381.514,612.508C371.04,628.487 356.405,640.605 337.606,648.863C318.808,657.12 295.109,661.249 266.509,661.249C216.291,661.249 181.514,651.582 162.179,632.246C142.843,612.911 131.9,588.339 129.349,558.53Z" style="fill-rule:nonzero;"></path>
        <path d="M437.707,442.317L514.041,442.317L514.041,477.161C525.454,462.928 537.002,452.757 548.684,446.647C560.365,440.538 574.598,437.483 591.382,437.483C614.075,437.483 631.832,444.23 644.655,457.725C657.478,471.219 663.89,492.065 663.89,520.263L663.89,656.214L581.513,656.214L581.513,538.591C581.513,525.164 579.029,515.664 574.061,510.091C569.093,504.519 562.111,501.733 553.115,501.733C543.178,501.733 535.122,505.493 528.945,513.012C522.769,520.531 519.681,534.026 519.681,553.495L519.681,656.214L437.707,656.214L437.707,442.317Z" style="fill-rule:nonzero;"></path>
        <path d="M550.818,183.396L563.346,183.396C564.914,180.555 566.695,178.563 568.688,177.418C570.68,176.316 572.885,175.764 575.301,175.764C578.015,175.764 580.283,176.146 582.106,176.909C583.929,177.842 585.307,179.093 586.24,180.661C587.978,183.968 588.804,188.271 588.72,193.571C588.72,195.733 588.677,197.959 588.592,200.248C588.423,202.58 587.957,204.742 587.193,206.735C586.473,208.727 585.201,210.338 583.378,211.568C581.47,212.84 578.926,213.476 575.747,213.476C568.327,213.391 563.897,209.787 562.455,202.665L549.164,202.665C550.436,211.186 553.722,217.355 559.021,221.17C564.236,224.901 569.981,226.767 576.255,226.767C580.919,226.682 584.946,225.601 588.338,223.523C591.815,221.531 594.464,219.326 596.287,216.91C598.365,214.451 599.849,211.631 600.739,208.452C601.587,205.23 602.011,200.608 602.011,194.588C602.011,190.688 601.884,187.402 601.629,184.731C601.375,182.103 600.951,179.877 600.357,178.054C599.213,174.705 597.347,171.758 594.761,169.214C593.023,167.307 590.755,165.695 587.957,164.381C584.989,163.194 581.724,162.558 578.163,162.473C572.609,162.473 567.67,164.169 563.346,167.561L563.346,146.575L600.23,146.575L600.23,133.284L550.818,133.284L550.818,183.396Z" style="fill:rgb(128,128,128);fill-rule:nonzero;"></path>
        <path d="M651.105,199.294C650.851,208.664 646.505,213.391 638.068,213.476C629.589,213.391 625.265,208.664 625.095,199.294L625.095,159.993C625.265,150.709 629.589,145.981 638.068,145.812C646.505,145.981 650.851,150.709 651.105,159.993L651.105,199.294ZM611.804,200.057C611.889,208.579 614.624,215.15 620.008,219.771C625.053,224.35 631.073,226.682 638.068,226.767C645.276,226.682 651.402,224.35 656.447,219.771C661.577,215.15 664.227,208.579 664.396,200.057L664.396,159.167C664.227,150.603 661.577,144.01 656.447,139.389C651.402,134.81 645.276,132.521 638.068,132.521C631.073,132.521 625.053,134.81 620.008,139.389C614.624,144.01 611.889,150.603 611.804,159.167L611.804,200.057Z" style="fill:rgb(128,128,128);fill-rule:nonzero;"></path>
    </g>
</svg><style>@media (prefers-color-scheme: light) { :root { filter: none; } }
@media (prefers-color-scheme: dark) { :root path { filter: invert(100%); } }
</style></svg>